<?xml version="1.0" encoding="UTF-8"?>
<svg id="Layer_2" data-name="Layer 2" xmlns="http://www.w3.org/2000/svg" viewBox="0 0 192.87 192.87">
  <defs>
    <style>
      .cls-1 {
        fill: #010101;
      }

      .cls-1, .cls-2, .cls-3, .cls-4 {
        stroke-width: 0px;
      }

      .cls-2 {
        fill: #d62b28;
      }

      .cls-3 {
        fill: #d62a28;
      }

      .cls-4 {
        fill: #fff;
      }
    </style>
  </defs>
  <g id="Layer_1-2" data-name="Layer 1">
    <g>
      <circle class="cls-1" cx="96.43" cy="96.43" r="96.43"/>
      <path class="cls-3" d="M72.03,83.87c22.46-4.49,10.87-1.59,33.4-8.89,2.25,2.87,7.57,3.56,17.3-.77,4.12,1.07,8.24,1.76,12.6.97,3.07.69,5.82,1.67,9.17,1.67.69-1.07,2.76-3.55,3.45-5.92l-.69-1.38-.27-2.37c-1.19-1.14-2.94-1.49-5.15-1.98-4.89-3.62-11.92-6.68-16.73-9.2l-1.84-2.25c-7.06-1.38-14.09-2.95-21.12-5.81l-.76.88,2.29,5.38c-19.44,5.76-24.53,11.11-36.55,22.13-1.29-.08-2.56-.21-3.82-.36-6.31-.78-12.34-2.59-18.83-5.99,3.37,6.7,11.94,10.61,15.89,12.33.27.12.58.25.84.37-4.44,4.88-12.42,14.32-12.42,28.46,0,8.17,4.17,17.04,12.95,17.01,23.86,0,42.01-26.46,43.92-28.69.29-.33.52-.65.72-.96l-15.84,42h16.03c9.96,0,18.22-3.03,24.19-8.44,5.18-4.71,8.43-10.89,9.18-17.66.62-5.54-.5-9.86-3.46-13.15-3.18-3.61-8.61-5.87-16.78-5.87h-12.13l-.02.05s.02-.05.02-.05c0,0-18.02,22.4-35.8,22.4-7.24.13-9.9-4.92-9.45-11.13.58-8.11,4.84-17.14,9.73-22.76ZM110.78,58.37l-2.53-2.87v-.88c4.44.61,6.27,2.59,7.38,3.35,2.6.31,5.28.19,7.22,1.08.42,2.18,2.64,3.67,4.53,4.51l6.82,2.83c-1.76,4.24-9.55,2.36-11.17,1.76-4.42.88-10.45,1.22-12.09-1.27-10.31,5.83-19.87,7.23-35.9,10.47,12.75-11.25,19.92-15.01,35.74-18.98ZM112.75,102.57h5.56c5.43,0,9.1,1.42,11.2,3.8,1.76,2,2.6,4.77,2.21,8.32-.54,4.9-2.81,9.22-6.36,12.44-4.4,4-10.45,6.12-17.03,6.12h-7.22l11.65-30.69Z"/>
      <g>
        <path class="cls-4" d="M19.47,127.14c-1.12-2.88.27-5.88,3.08-6.98h.03c2.78-1.1,5.88.11,7.05,3.12.72,1.84.53,3.19,0,4.45l-2.11-.75c.39-1.02.51-1.95.13-2.93-.64-1.65-2.48-2.3-4.15-1.65h-.03c-1.68.66-2.62,2.37-1.97,4.05.44,1.12,1.15,1.63,2.15,2.12l-.85,1.91c-1.47-.59-2.58-1.44-3.31-3.33Z"/>
        <path class="cls-4" d="M24.4,137.14l8.92-5.54,1.22,1.96-7.13,4.44,2.76,4.45-1.78,1.11-3.98-6.41Z"/>
        <path class="cls-4" d="M35.05,152.02c-1.89-2.09-1.88-4.42.4-6.5l4.44-4.03,1.55,1.71-4.4,3.99c-1.27,1.15-1.35,2.38-.4,3.42.95,1.04,2.15,1.1,3.39-.01l4.46-4.04,1.55,1.71-4.39,3.98c-2.36,2.13-4.71,1.86-6.6-.23Z"/>
        <path class="cls-4" d="M47.75,163.24l-4-2.99,6.28-8.42,3.91,2.92c1.72,1.28,2.14,2.93,1.15,4.25l-.02.02c-.71.95-1.61,1.1-2.46.99.7,1.1.88,2.11.03,3.24l-.02.02c-1.15,1.54-2.97,1.38-4.87-.04ZM50.97,161.66c.42-.56.26-1.23-.69-1.94l-2.14-1.6-1.38,1.85,2.2,1.64c.82.61,1.53.69,1.99.06l.02-.02ZM53.02,157.94c.41-.55.21-1.19-.57-1.77l-1.83-1.36-1.33,1.78,1.71,1.27c.82.61,1.53.73,2,.11l.02-.02Z"/>
        <path class="cls-4" d="M68.87,174.38l-3.87-1.34,3.44-9.92,3.87,1.34c3.12,1.08,4.53,3.97,3.56,6.76v.03c-.98,2.79-3.88,4.21-7,3.13ZM73.58,170.46c.61-1.76-.17-3.41-1.95-4.03l-1.69-.58-2.07,5.98,1.69.58c1.79.62,3.41-.17,4.02-1.93v-.03Z"/>
        <path class="cls-4" d="M81.08,177.75l1.46-10.39,7.84,1.1-.29,2.03-5.57-.78-.3,2.11,4.9.69-.29,2.03-4.9-.69-.31,2.18,5.64.79-.29,2.03-7.91-1.11Z"/>
        <path class="cls-4" d="M109.88,178l-4.94.76-1.59-10.38,4.82-.74c2.12-.33,3.59.53,3.84,2.16v.03c.18,1.17-.34,1.92-1.02,2.45,1.27.28,2.12.86,2.33,2.25v.03c.29,1.9-1.1,3.08-3.45,3.44ZM109.8,170.53c-.11-.68-.7-.99-1.66-.84l-2.25.35.34,2.19,2.11-.32c1.01-.15,1.6-.58,1.48-1.35v-.03ZM111.02,174.59c-.11-.7-.69-1.05-1.86-.87l-2.64.4.35,2.28,2.71-.42c1.01-.15,1.56-.6,1.44-1.38v-.03Z"/>
        <path class="cls-4" d="M120.44,175.63l-3.5-9.9,7.47-2.64.69,1.94-5.3,1.88.71,2.01,4.67-1.65.69,1.94-4.67,1.65.74,2.08,5.38-1.9.69,1.94-7.54,2.67Z"/>
        <path class="cls-4" d="M134.21,169.98l-4.93-9.27,2.04-1.09,4.93,9.27-2.04,1.09Z"/>
        <path class="cls-4" d="M145.63,163.04c-1.28.94-2.9,1.45-4.59,1.29l.13-2.13c1.22.07,2.31-.12,3.28-.83.76-.56,1-1.2.63-1.7l-.02-.02c-.35-.47-.82-.5-2.5.18-2.02.82-3.47,1.16-4.71-.52l-.02-.02c-1.13-1.53-.64-3.46,1.08-4.73,1.23-.91,2.57-1.29,3.93-1.24l.07,2.11c-1.13.03-2.1.26-2.81.79s-.85,1.13-.54,1.54l.02.02c.41.56.91.47,2.64-.23,2.04-.82,3.47-.91,4.55.56l.02.02c1.24,1.68.65,3.57-1.18,4.91Z"/>
        <path class="cls-4" d="M157.29,152.37l-3.42,3.64-7.66-7.19,3.34-3.56c1.47-1.56,3.15-1.8,4.35-.67l.02.02c.86.81.91,1.72.71,2.56,1.17-.57,2.2-.63,3.23.33l.02.02c1.4,1.31,1.03,3.11-.59,4.84ZM152.61,146.54c-.5-.47-1.16-.35-1.83.37l-1.56,1.66,1.62,1.52,1.46-1.55c.7-.74.9-1.44.33-1.97l-.02-.02ZM156.07,148.99c-.51-.48-1.19-.4-2,.47l-1.83,1.95,1.68,1.58,1.88-2c.7-.74.86-1.44.29-1.97l-.02-.02Z"/>
        <path class="cls-4" d="M167.09,139.69c-1.69,2.76-4.97,3.48-7.51,1.92l-.03-.02c-2.54-1.56-3.4-4.85-1.7-7.61,1.69-2.76,4.97-3.48,7.51-1.92l.03.02c2.54,1.56,3.4,4.85,1.7,7.61ZM164.12,134.14c-1.53-.94-3.5-.6-4.48.99s-.39,3.45,1.14,4.4l.03.02c1.53.94,3.5.6,4.48-.99s.39-3.45-1.14-4.4l-.03-.02Z"/>
        <path class="cls-4" d="M172.79,128.32l-9.85-3.65.8-2.17,7.88,2.92,1.82-4.91,1.97.73-2.62,7.08Z"/>
      </g>
      <g>
        <path class="cls-4" d="M20.62,83.87h-.03c-2.98-.7-4.79-3.53-4.07-6.63.48-2.09,1.67-3.23,3.14-3.85l1.16,2.52c-.87.42-1.49.98-1.72,1.96-.33,1.43.65,2.72,2.14,3.07h.03c1.54.36,2.97-.37,3.3-1.8.25-1.07-.1-1.81-.71-2.6l2.01-1.78c1.11,1.27,1.78,2.8,1.26,5.07-.68,2.92-3.46,4.76-6.51,4.05Z"/>
        <path class="cls-4" d="M20.21,66.02l1.08-2.59,11.49-.04-1.21,2.88-2.03-.02-1.57,3.74,1.44,1.42-1.18,2.82-8.03-8.21ZM27.13,66.16l-3.21-.07,2.3,2.25.91-2.17Z"/>
        <path class="cls-4" d="M24.81,56.41l1.53-2.47,6.75,4.19,2.68-4.32,2.17,1.34-4.21,6.79-8.92-5.53Z"/>
        <path class="cls-4" d="M31.06,46.98l1.81-2.3,8.26,6.48-1.81,2.3-8.26-6.48Z"/>
        <path class="cls-4" d="M35.37,41.61l5.94-6,1.76,1.74-3.92,3.95,1.13,1.12,3.55-3.58,1.63,1.62-3.55,3.58,1.18,1.17,3.97-4,1.76,1.74-6,6.05-7.46-7.39Z"/>
        <path class="cls-4" d="M44.29,33.01l2.2-1.6,6.76,1.95-3.26-4.49,2.33-1.69,6.17,8.49-2.06,1.5-7.01-2.02,3.39,4.66-2.33,1.69-6.17-8.49Z"/>
        <path class="cls-4" d="M59.46,26.13l-2.81,1.42-1.15-2.28,8.23-4.14,1.15,2.28-2.81,1.42,3.57,7.1-2.6,1.31-3.57-7.1Z"/>
        <path class="cls-4" d="M67.05,19.8l8.02-2.63.77,2.35-5.29,1.73.5,1.51,4.79-1.57.71,2.18-4.79,1.57.52,1.58,5.36-1.76.77,2.35-8.09,2.65-3.27-9.98Z"/>
        <path class="cls-4" d="M84.7,15.17l4.04-.34c3.74-.31,6.09,1.66,6.34,4.68v.03c.25,3.02-1.76,5.45-5.52,5.76l-3.98.33-.88-10.47ZM89.45,22.72c1.74-.15,2.81-1.2,2.67-2.89v-.03c-.14-1.67-1.38-2.55-3.11-2.41l-1.18.1.45,5.32,1.18-.1Z"/>
        <path class="cls-4" d="M98.54,14.41l8.42.63-.18,2.47-5.55-.41-.12,1.58,5.02.37-.17,2.29-5.02-.37-.12,1.66,5.62.42-.18,2.47-8.49-.63.78-10.47Z"/>
        <path class="cls-4" d="M116.61,16.84l3.86,1.22c3.57,1.13,5,3.85,4.08,6.74v.03c-.92,2.89-3.71,4.37-7.31,3.22l-3.8-1.21,3.17-10.01ZM118.12,25.62c1.66.53,3.05-.04,3.56-1.66v-.03c.52-1.6-.29-2.88-1.95-3.41l-1.13-.36-1.61,5.09,1.13.36Z"/>
        <path class="cls-4" d="M126.97,26.58l2.71-5.24,2.62,1.36-2.68,5.18c-.7,1.35-.35,2.34.69,2.87s2.04.27,2.71-1.03l2.71-5.25,2.62,1.36-2.67,5.17c-1.55,3.01-3.96,3.44-6.61,2.07-2.65-1.37-3.62-3.58-2.11-6.49Z"/>
        <path class="cls-4" d="M141.87,28.08l3.97,2.97c1.29.96,1.92,1.96,2.06,2.96.13.85-.1,1.69-.72,2.51l-.02.02c-.96,1.28-2.28,1.63-3.66,1.29l-.18,4.43-2.69-2.01.21-3.81-.02-.02-1-.74-1.9,2.55-2.33-1.74,6.28-8.41ZM142.72,35c.79.59,1.54.55,1.99-.06l.02-.02c.49-.66.26-1.36-.52-1.94l-1.52-1.14-1.51,2.02,1.54,1.15Z"/>
        <path class="cls-4" d="M154.71,38.69l1.94,2.03-4.55,10.54-2.16-2.25.83-1.85-2.8-2.92-1.87.75-2.12-2.21,10.73-4.09ZM151.83,44.98l1.35-2.91-2.98,1.21,1.63,1.7Z"/>
        <path class="cls-4" d="M161.84,46.79l1.51,2.26-2.21,6.68,4.61-3.09,1.6,2.39-8.73,5.84-1.42-2.12,2.29-6.93-4.79,3.21-1.6-2.39,8.73-5.84Z"/>
        <path class="cls-4" d="M164.48,60.68h.03c2.8-1.25,5.96-.03,7.28,2.95.75,1.69.75,3.11.33,4.52l-2.57-.73c.27-.94.3-1.77-.12-2.72-.61-1.39-2.25-1.94-3.72-1.29h-.03c-1.55.7-2.18,2.27-1.51,3.8.29.65.64,1.08,1.08,1.36l1.17-.52-.84-1.89,1.95-.86,1.96,4.42-4.32,1.91c-1.29-.65-2.56-1.77-3.33-3.51-1.32-2.99-.26-6.14,2.65-7.42Z"/>
        <path class="cls-4" d="M169.61,72.78h.03c2.93-.72,5.88,1.06,6.64,4.21.76,3.15-1.01,6.05-3.94,6.76h-.03c-2.93.72-5.88-1.06-6.64-4.21s1.01-6.05,3.94-6.76ZM171.58,80.88h.03c1.47-.36,2.5-1.74,2.12-3.3-.38-1.54-1.88-2.27-3.35-1.92h-.03c-1.47.36-2.5,1.74-2.12,3.28.38,1.56,1.88,2.29,3.36,1.93Z"/>
      </g>
      <path class="cls-2" d="M96.43,8.96c48.31,0,87.48,39.16,87.48,87.48s-39.16,87.48-87.48,87.48S8.96,144.74,8.96,96.43,48.12,8.96,96.43,8.96M96.43,5.96C46.54,5.96,5.96,46.54,5.96,96.43s40.59,90.48,90.48,90.48,90.48-40.59,90.48-90.48S146.32,5.96,96.43,5.96h0Z"/>
      <path class="cls-2" d="M96.43,32.59c35.26,0,63.84,28.58,63.84,63.84s-28.58,63.84-63.84,63.84-63.84-28.58-63.84-63.84,28.58-63.84,63.84-63.84M96.43,29.59c-36.85,0-66.84,29.98-66.84,66.84s29.98,66.84,66.84,66.84,66.84-29.98,66.84-66.84S133.29,29.59,96.43,29.59h0Z"/>
      <g>
        <g>
          <rect class="cls-2" x="167.1" y="90.93" width="12.3" height="3"/>
          <rect class="cls-2" x="167.1" y="97.93" width="12.3" height="3"/>
          <rect class="cls-2" x="167.1" y="104.93" width="12.3" height="3"/>
        </g>
        <g>
          <rect class="cls-2" x="13.46" y="90.93" width="12.3" height="3"/>
          <rect class="cls-2" x="13.46" y="97.93" width="12.3" height="3"/>
          <rect class="cls-2" x="13.46" y="104.93" width="12.3" height="3"/>
        </g>
      </g>
    </g>
  </g>
</svg>