<?xml version="1.0" encoding="UTF-8"?>
<svg id="Layer_2" data-name="Layer 2" xmlns="http://www.w3.org/2000/svg" viewBox="0 0 213.68 82.4">
  <defs>
    <style>
      .cls-1 {
        fill: #d62a28;
        stroke-width: 0px;
      }
    </style>
  </defs>
  <g id="Layer_1-2" data-name="Layer 1">
    <g>
      <g>
        <g>
          <path class="cls-1" d="M66.55,63.41h6.01c3.62,0,5.88.98,7.29,2.39,1.38,1.38,2.02,3.19,2.02,5.45,0,2.79-1.06,5.35-3.06,7.34-2.23,2.23-5.45,3.43-9.76,3.43h-7.5l5-18.62ZM69.66,77.45c2.15,0,4.1-.67,5.32-1.89.98-.98,1.6-2.42,1.6-3.88,0-1.14-.35-1.97-.93-2.55-.69-.72-1.83-1.14-3.64-1.14h-1.49l-2.55,9.47h1.7Z"/>
          <path class="cls-1" d="M83.01,75.85c0-.93.16-1.97.43-2.98l2.55-9.47h5.21l-2.63,9.84c-.16.58-.27,1.14-.27,1.75,0,1.68,1.04,2.71,2.9,2.71.98,0,1.86-.35,2.5-.98.69-.67,1.17-1.6,1.57-3.08l2.77-10.24h5.21l-2.95,11.01c-.67,2.45-1.6,4.25-2.9,5.56-1.65,1.65-3.99,2.39-6.86,2.39-4.79,0-7.53-2.42-7.53-6.52Z"/>
          <path class="cls-1" d="M105.67,63.41h7.02c3.11,0,5.16.69,6.41,1.94.98.98,1.44,2.31,1.44,3.8,0,3.11-1.78,5.56-5.58,6.6l2.87,6.28h-5.69l-2.47-5.64h-2.29l-1.52,5.64h-5.19l5-18.62ZM111.39,72.34c2.31,0,3.83-.98,3.83-2.58,0-.51-.16-.9-.48-1.25-.43-.43-1.2-.64-2.29-.64h-2.79l-1.22,4.47h2.95Z"/>
          <path class="cls-1" d="M130.33,63.27h5.05l2.9,18.75h-5.43l-.45-3.32h-7.18l-2.23,3.32h-5.61l12.95-18.75ZM131.98,74.68l-.67-5.35-3.48,5.35h4.15Z"/>
          <path class="cls-1" d="M143.97,63.41h4.81l4.81,10.35,2.79-10.35h5.13l-5,18.62h-4.52l-5.03-10.72-2.87,10.72h-5.13l5-18.62Z"/>
          <path class="cls-1" d="M160.73,74.18c0-5.93,4.84-11.14,11.94-11.14,3.72,0,6.44,1.52,7.71,3.17l-3.46,3.35c-1.09-1.09-2.61-1.92-4.6-1.92-3.75,0-6.33,2.9-6.33,6.33,0,2.61,1.89,3.96,4.18,3.96,1.04,0,1.83-.21,2.47-.51l.74-2.5h-3.59l.98-3.78h8.54l-2.66,9.39c-1.83,1.06-4.23,1.86-6.97,1.86-4.44,0-8.96-2.5-8.96-8.22Z"/>
          <path class="cls-1" d="M180.39,74.02c0-5.66,4.63-10.96,11.09-10.96,5.29,0,8.88,3.62,8.88,8.35,0,5.67-4.63,10.96-11.09,10.96-5.29,0-8.88-3.62-8.88-8.35ZM195.09,71.81c0-2.37-1.44-4.12-4.07-4.12-3.25,0-5.37,3.17-5.37,5.93,0,2.37,1.44,4.12,4.07,4.12,3.27,0,5.37-3.17,5.37-5.93Z"/>
        </g>
        <g>
          <path class="cls-1" d="M52.58,67.26c-.27-3.16-3.35-5.06-8.02-4.97-.18,0-.36.01-.53.02-2.7.15-4.91,1-6.05,2.36-.62.73-.9,1.58-.8,2.46.1.87.9,1.62,1.72,1.61,0,0,0,0,0,0,.07,0,.12-.05.14-.12.02-.07-.02-.14-.08-.17-.31-.16-.53-.49-.57-.87-.06-.51.19-1.15.69-1.74,1.17-1.38,3.37-2.29,5.88-2.42.22-.01.44-.02.67-.02,2.3,0,4.83,1.26,5.07,3.38.43,3.77-4.52,9.12-12.31,10.87.38-1.57,3.45-6.99,5.7-10.27.7-1.02.98-1.4,1.26-1.71.33-.35.59-.53.79-.54.07,0,.13.01.19.05.03.03.09.07.16.07.07,0,.14-.07.15-.14.04-.23-.59-1.01-1.35-1.31-.16-.07-.36-.12-.52-.12,0,0-.02,0-.03,0-.8.04-1.83,1.51-2.37,2.39-2.25,3.46-5.18,9.95-5.1,11.8-.62.1-1.23.17-1.83.2-.19.01-.38.02-.57.02,0,0,0,0,0,0-.06,0-.11.04-.13.1-.02.06,0,.12.04.16l.91.87s.07.04.11.04c.25,0,.49-.01.73-.03,5.33-.29,10.76-2.76,13.83-6.3,1.61-1.86,2.37-3.82,2.21-5.67Z"/>
          <path class="cls-1" d="M60.31,69.95c-.06-.79-1.33-1.25-1.73-1.23,0,0-.01,0-.01,0-1.16.09-3.27,1.08-5.07,2.79-1.46,1.4-2.56,2.99-3.03,4.36-.18.64-.25,1.11-.22,1.63.02.4.18.76.47,1.02.43.39,1.05.51,1.48.48h.05c1.58-.13,3.65-1.36,6.16-3.66l.2-.19s.06-.08.06-.13v-.63s.01-.03.01-.04c0-.1-.09-.17-.19-.17h0s0,0,0,0c0,0,0,0,0,0,0,0,0,0,0,0s0,0,0,0c-.04,0-.07.02-.1.04-2.48,2.09-4.28,3.23-5.21,3.3h-.06c-.31.02-.42-.04-.46-.08-.02-.02-.04-.05-.04-.12.02-.54.37-1.25.73-1.75,2.77-.36,7.09-4.1,6.97-5.62ZM58.84,70.07s0,.03,0,.06c-.09.79-2.83,3.34-4.65,3.97,1.38-2.45,2.99-3.84,4.65-4.03Z"/>
        </g>
      </g>
      <path class="cls-1" d="M213.68,28.12c0-1.04-.76-2.8-3.03-2.8-7.04,0-13.3,2-19.53,6.83-4.42,3.08-9.83,8.32-12.85,10.41-.86.63-1.28-1.56-.25-3.02l8.21-12.08,5.33-.33,1.8-2.5-5.29.36,4.27-6.26-10.37,1.95-3.58,4.92-3.09.27-1.75,2.47,2.64-.3c-.25,1.73-7.08,8.7-8.72,9.91-2.3,1.65-4.55,3.13-7.24,4.64-.5.31-.97-.22-.81-.71.95-2.61,3.36-5.36,5.48-8.1,1.49-2.01,4.21-5.35,5-7.77.35-1.1-.78-1.1-1.73-.74-5.52,2.25-12.32,8.54-20.01,14.25-.72.5-1.38-.57-.47-1.92l8.16-12.05-10.2,1.95-4.58,6.4c-4.66,6.56-15.37,14.67-23.5,17.22-.39.14-2.27.85-2.72-.02-.41-.88-.25-2.29.09-3.44,6.41-1.01,24.52-12.65,24.64-19.6.06-2.39-1.66-2.78-3.94-2.78-4.75-.02-11.64,2.45-15.27,4.67-6.8,4.1-13.3,12.36-15.93,12.91-.11,0-.44-.58-.44-.91,0-.66.11-1.24,1.05-2.55l9.1-13.59-10.3,1.84-3.02,4.42c-2.75,3.98-11.74,10.52-12.71,10.52-.32,0-.9-.13-.9-.63,0-1.49,1.11-3.13,1.95-4.34l15.04-21.5-10.44,1.7-10.57,15.3c-2.61,3.79-8.1,8.24-11.09,9.88-.21.06-.96-.08-.96-.63,0-2.94,5.77-10.21,9.14-15.26-5.58.74-10.64-.33-12.55-.33-9.33.06-17.29,6.48-23.32,13.61-2.52,3-12.68,12.25-18.43,15.65-1.61.96-6.08,3.52-9.19,3.73-3.14.22-4.8-3.81-4.8-8.45,0-7.09,4.05-14.47,7.61-18.51,12.46,2.31,26.12-6.84,35.94-13.34,1.64,2.06,5.5,2.56,12.57-.55,3,.77,5.99,1.27,9.15.7,2.23.49,4.23,1.2,6.66,1.2.5-.77,2-2.55,2.51-4.25l-.5-.99-.19-1.7c-.86-.82-2.13-1.07-3.75-1.43-3.55-2.6-8.66-4.8-12.16-6.62l-1.33-1.62c-5.13-.99-10.24-2.12-15.35-4.18l-.55.63,1.66,3.87c-15.9,5.05-25.31,10.9-37.72,21.62-5.63-.33-10.8-1.63-16.46-4.57,2.63,5.16,9.65,8.05,12.16,9.13-3.23,3.51-12.24,13.5-12.24,23.66,0,5.88,4.21,12.22,9.41,12.22,9.82,0,22.72-11.86,29.89-17.8-1.1,2.72-2.19,4.98-2.19,7.92,0,1.23.91.82,1.18.96,1.56.85,15.44-12.69,22.74-15.81.25-.11.83-.23,1.22-.2-2.53,3.22-8.91,10.57-8.91,14.74,0,1.43,1.17,1.27,1.17,1.27,3.58-.88,16.12-10.68,21.43-14.14-3.22,5.3-5.94,9.37-5.8,12.69,0,.53.17,1.46,1.12,1.46,1.82,0,19.85-13.76,22.34-15.54-1.75,2.5-6.58,10.21-6.58,13.23,0,.93.45,2.58,1.4,2.31,1.99-.52,9.24-5.98,18.07-12.66-1.25,2.69-2.28,4.89-2.28,7.88s1.84,4.89,5.22,4.77c7.22-.19,17.89-8.62,24.65-13.62-2.63,4.32-5.11,7.14-6.3,11.09-.45,1.37-.3,2.86.73,2.42,1.69-.64,20.06-16.13,22.89-17.17.11-.02,1.92-.85.65,1.13-2.61,3.95-7.19,8.59-8.72,12.92-.31.91-.78,3.22,1.11,3.22,1.55,0,19.21-14.8,23.87-17.74-2.83,4.37-7.74,11.58-8.02,15.24-.06.77,0,2.61,1.08,2.5,2.23-.24,17.18-12.11,19.96-14.14-1.44,2.25-2.8,5.88-2.8,9.45,0,2.69,2.06,4.89,4.55,4.7,7.55-.61,17.17-7.58,23.78-12.52l.45-2.99c-5.83,4.36-10.13,7.11-16.74,9.22-.61.14-1.72-.1-1.72-1.18s-.19-1.75.33-2.53c4.48-.33,24.51-12.1,24.51-19.52ZM203.21,29.58c3.91.02-6.63,14.27-13.27,15.04,1.61-5.05,10.11-15.04,13.27-15.04ZM128.95,29.44c4.22.14-6.66,14.5-13.24,15.24,1.6-5.03,10.16-15.38,13.24-15.24ZM59.59,7.5l-1.84-2.06v-.63c3.23.44,4.55,1.86,5.36,2.41,1.89.22,3.84.14,5.25.77.31,1.56,1.92,2.63,3.29,3.24l4.96,2.03c-1.28,3.04-6.94,1.7-8.11,1.26-3.21.63-7.59.88-8.79-.91-7.36,4.78-24.29,12.31-34.54,13.13,8.68-8.18,22.92-16.4,34.42-19.25ZM54.51,42.34c0-4.75,9.6-12.6,14.96-12.6,0,1.68-11.15,12.19-14.96,12.6ZM116.75,17.9c1.95-1.37,3.02-3.55,1.5-5.19-.39-.41-2.03-.77-4.11.05-1.89.74-6.05,4.53-6.14,7.91-.02.99,5.78-.74,8.75-2.77Z"/>
    </g>
  </g>
</svg>